<?xml version="1.0" encoding="UTF-8"?>
<!DOCTYPE svg PUBLIC "-//W3C//DTD SVG 1.0//EN" "http://www.w3.org/TR/2001/REC-SVG-20010904/DTD/svg10.dtd">
<!-- Creator: CorelDRAW -->
<svg xmlns="http://www.w3.org/2000/svg" xml:space="preserve" width="75px" height="75px" version="1.0" style="shape-rendering:geometricPrecision; text-rendering:geometricPrecision; image-rendering:optimizeQuality; fill-rule:evenodd; clip-rule:evenodd"
viewBox="0 0 13.673 13.673"
 xmlns:xlink="http://www.w3.org/1999/xlink"
 xmlns:xodm="http://www.corel.com/coreldraw/odm/2003">
 <defs>
  <style type="text/css">
   <![CDATA[
    .fil0 {fill:black}
   ]]>
  </style>
 </defs>
 <g id="Layer_x0020_1">
  <metadata id="CorelCorpID_0Corel-Layer"/>
  <path class="fil0" d="M6.836 0c3.776,0 6.837,3.061 6.837,6.836 0,3.776 -3.061,6.837 -6.837,6.837 -3.775,0 -6.836,-3.061 -6.836,-6.837 0,-3.775 3.061,-6.836 6.836,-6.836zm1.717 6.836l-1.125 0 0 4.055 -1.687 0 0 -4.055 -0.799 0 0 -1.421 0.799 0 0 -0.917c0,-0.681 0.326,-1.717 1.717,-1.717l1.243 0.03 0 1.361 -0.918 0c-0.148,0 -0.355,0.089 -0.355,0.385l0 0.858 1.273 0 -0.148 1.421z"/>
 </g>
</svg>
