<?xml version="1.0" encoding="UTF-8"?>
<!DOCTYPE svg PUBLIC "-//W3C//DTD SVG 1.0//EN" "http://www.w3.org/TR/2001/REC-SVG-20010904/DTD/svg10.dtd">
<!-- Creator: CorelDRAW -->
<svg xmlns="http://www.w3.org/2000/svg" xml:space="preserve" width="75px" height="75px" version="1.0" style="shape-rendering:geometricPrecision; text-rendering:geometricPrecision; image-rendering:optimizeQuality; fill-rule:evenodd; clip-rule:evenodd"
viewBox="0 0 31.807 31.807"
 xmlns:xlink="http://www.w3.org/1999/xlink"
 xmlns:xodm="http://www.corel.com/coreldraw/odm/2003">
 <defs>
  <style type="text/css">
   <![CDATA[
    .fil0 {fill:black}
   ]]>
  </style>
 </defs>
 <g id="Layer_x0020_1">
  <metadata id="CorelCorpID_0Corel-Layer"/>
  <path class="fil0" d="M15.903 0c8.784,0 15.904,7.12 15.904,15.903 0,8.784 -7.12,15.904 -15.904,15.904 -8.783,0 -15.903,-7.12 -15.903,-15.904 0,-8.783 7.12,-15.903 15.903,-15.903zm-0.035 6.571c-2.516,0 -2.866,0 -3.845,0.07 -0.978,0 -1.677,0.209 -2.237,0.419 -0.629,0.28 -1.118,0.559 -1.677,1.049 -0.49,0.559 -0.839,1.048 -1.049,1.678 -0.21,0.559 -0.419,1.258 -0.419,2.236 0,1.049 -0.07,1.329 -0.07,3.845 0,2.587 0,2.936 0.07,3.915 0,0.979 0.209,1.678 0.419,2.237 0.28,0.63 0.559,1.119 1.049,1.678 0.559,0.49 1.048,0.769 1.677,1.049 0.629,0.209 1.259,0.349 2.237,0.419 1.049,0 1.329,0.07 3.845,0.07 2.587,0 2.937,0 3.915,-0.07 0.979,-0.07 1.678,-0.21 2.237,-0.419 0.63,-0.28 1.119,-0.559 1.678,-1.049 0.49,-0.559 0.839,-1.048 1.049,-1.678 0.21,-0.559 0.349,-1.258 0.419,-2.237 0,-1.048 0.07,-1.328 0.07,-3.915 0,-2.516 0,-2.866 -0.07,-3.845 -0.07,-0.978 -0.209,-1.677 -0.419,-2.236 -0.28,-0.63 -0.559,-1.119 -1.049,-1.678 -0.559,-0.49 -1.048,-0.839 -1.678,-1.049 -0.629,-0.21 -1.258,-0.419 -2.237,-0.419 -0.978,0 -1.328,-0.07 -3.915,-0.07zm0 4.054c-2.656,0 -4.753,2.167 -4.753,4.824 0,2.656 2.097,4.754 4.753,4.754 2.657,0 4.824,-2.098 4.824,-4.754 0,-2.657 -2.167,-4.824 -4.824,-4.824zm0 7.9c-1.677,0 -3.076,-1.398 -3.076,-3.076 0,-1.748 1.398,-3.146 3.076,-3.146 1.748,0 3.146,1.398 3.146,3.146 0,1.678 -1.398,3.076 -3.146,3.076zm6.152 -7.969c0,0.629 -0.559,1.188 -1.188,1.188 -0.699,0 -1.259,-0.559 -1.259,-1.188 0,-0.7 0.56,-1.259 1.259,-1.259 0.629,0 1.188,0.559 1.188,1.259zm-6.152 -2.238c2.517,0 2.867,0 3.845,0 0.909,0.07 1.398,0.21 1.748,0.35 0.419,0.21 0.769,0.419 1.049,0.699 0.349,0.35 0.489,0.699 0.699,1.119 0.14,0.279 0.279,0.768 0.349,1.747 0,0.979 0.07,1.259 0.07,3.775 0,2.517 0,2.796 -0.07,3.775 -0.07,0.909 -0.209,1.398 -0.349,1.748 -0.21,0.419 -0.35,0.769 -0.699,1.049 -0.35,0.349 -0.63,0.559 -1.049,0.699 -0.35,0.14 -0.839,0.279 -1.748,0.349 -0.978,0 -1.328,0.07 -3.845,0.07 -2.446,0 -2.796,0 -3.774,-0.07 -0.91,0 -1.399,-0.209 -1.748,-0.349 -0.42,-0.14 -0.769,-0.35 -1.049,-0.699 -0.35,-0.35 -0.489,-0.63 -0.699,-1.049 -0.14,-0.35 -0.28,-0.839 -0.35,-1.748 0,-0.979 -0.069,-1.258 -0.069,-3.775 0,-2.516 0,-2.796 0.069,-3.775 0.07,-0.979 0.21,-1.468 0.35,-1.747 0.21,-0.42 0.349,-0.769 0.699,-1.119 0.35,-0.28 0.629,-0.489 1.049,-0.699 0.349,-0.07 0.838,-0.28 1.748,-0.35 0.978,0 1.328,0 3.774,0z"/>
 </g>
</svg>
