<?xml version="1.0" encoding="UTF-8"?>
<!DOCTYPE svg PUBLIC "-//W3C//DTD SVG 1.0//EN" "http://www.w3.org/TR/2001/REC-SVG-20010904/DTD/svg10.dtd">
<!-- Creator: CorelDRAW -->
<svg xmlns="http://www.w3.org/2000/svg" xml:space="preserve" width="75px" height="75px" version="1.0" style="shape-rendering:geometricPrecision; text-rendering:geometricPrecision; image-rendering:optimizeQuality; fill-rule:evenodd; clip-rule:evenodd"
viewBox="0 0 19.577 19.577"
 xmlns:xlink="http://www.w3.org/1999/xlink"
 xmlns:xodm="http://www.corel.com/coreldraw/odm/2003">
 <defs>
  <style type="text/css">
   <![CDATA[
    .fil1 {fill:#1A1A1A}
    .fil0 {fill:#7E8384;fill-rule:nonzero}
    .fil2 {fill:white;fill-rule:nonzero}
   ]]>
  </style>
 </defs>
 <g id="Layer_x0020_1">
  <metadata id="CorelCorpID_0Corel-Layer"/>
  <path class="fil0" d="M9.788 19.577c-0.057,0 -0.141,0 -0.197,0 0.056,0 0.14,0 0.197,0 5.388,0 9.789,-4.4 9.789,-9.788 0,-0.028 0,-0.057 0,-0.085 0,0.028 0,0.057 0,0.085 0,5.388 -4.401,9.788 -9.789,9.788z"/>
  <circle class="fil1" cx="9.788" cy="9.788" r="9.788"/>
  <path class="fil2" d="M12.158 4.147l-4.74 0c-0.479,0 -0.846,0.367 -0.846,0.818l0 9.648c0,0.451 0.367,0.818 0.846,0.818l4.74 0c0.451,0 0.818,-0.367 0.818,-0.818l0 -9.648c0,-0.451 -0.367,-0.818 -0.818,-0.818zm-3.555 0.479l2.342 0c0.084,0 0.112,0.085 0.112,0.198 0,0.113 -0.028,0.197 -0.112,0.197l-2.342 0c-0.056,0 -0.113,-0.084 -0.113,-0.197 0,-0.113 0.057,-0.198 0.113,-0.198zm1.185 9.987c-0.282,0 -0.536,-0.226 -0.536,-0.508 0,-0.31 0.254,-0.536 0.536,-0.536 0.282,0 0.508,0.226 0.508,0.536 0,0.282 -0.226,0.508 -0.508,0.508zm2.567 -1.778l-5.162 0 0 -7.306 5.162 0 0 7.306z"/>
 </g>
</svg>
