<?xml version="1.0" encoding="UTF-8"?>
<!DOCTYPE svg PUBLIC "-//W3C//DTD SVG 1.0//EN" "http://www.w3.org/TR/2001/REC-SVG-20010904/DTD/svg10.dtd">
<!-- Creator: CorelDRAW -->
<svg xmlns="http://www.w3.org/2000/svg" xml:space="preserve" width="75px" height="75px" version="1.0" style="shape-rendering:geometricPrecision; text-rendering:geometricPrecision; image-rendering:optimizeQuality; fill-rule:evenodd; clip-rule:evenodd"
viewBox="0 0 150.02 150.02"
 xmlns:xlink="http://www.w3.org/1999/xlink"
 xmlns:xodm="http://www.corel.com/coreldraw/odm/2003">
 <defs>
  <style type="text/css">
   <![CDATA[
    .fil0 {fill:black}
   ]]>
  </style>
 </defs>
 <g id="Layer_x0020_1">
  <metadata id="CorelCorpID_0Corel-Layer"/>
  <path class="fil0" d="M75.01 0c41.427,0 75.01,33.583 75.01,75.01 0,41.427 -33.583,75.01 -75.01,75.01 -41.427,0 -75.01,-33.583 -75.01,-75.01 0,-41.427 33.583,-75.01 75.01,-75.01zm40.363 66.006c-0.773,0.075 -1.546,0.113 -2.319,0.117 -8.501,0.002 -16.422,-4.282 -21.079,-11.391l0 38.79c0,15.835 -12.834,28.67 -28.672,28.67 -15.833,0 -28.672,-12.835 -28.672,-28.67 0,-15.834 12.839,-28.668 28.672,-28.668 0.6,0 1.185,0.051 1.775,0.089l0 14.128c-0.59,-0.069 -1.17,-0.178 -1.775,-0.178 -8.08,0 -14.633,6.55 -14.633,14.633 0,8.081 6.553,14.632 14.633,14.632 8.084,0 15.222,-6.368 15.222,-14.45l0.144 -65.881 13.512 0c1.278,12.121 11.05,21.588 23.207,22.477l0 15.702 -0.015 0z"/>
 </g>
</svg>
