<?xml version="1.0" encoding="UTF-8"?>
<!DOCTYPE svg PUBLIC "-//W3C//DTD SVG 1.0//EN" "http://www.w3.org/TR/2001/REC-SVG-20010904/DTD/svg10.dtd">
<!-- Creator: CorelDRAW -->
<svg xmlns="http://www.w3.org/2000/svg" xml:space="preserve" width="75px" height="75px" version="1.0" style="shape-rendering:geometricPrecision; text-rendering:geometricPrecision; image-rendering:optimizeQuality; fill-rule:evenodd; clip-rule:evenodd"
viewBox="0 0 40.962 40.962"
 xmlns:xlink="http://www.w3.org/1999/xlink"
 xmlns:xodm="http://www.corel.com/coreldraw/odm/2003">
 <defs>
  <style type="text/css">
   <![CDATA[
    .fil0 {fill:#7B519D;fill-rule:nonzero}
    .fil1 {fill:white;fill-rule:nonzero}
   ]]>
  </style>
 </defs>
 <g id="Layer_x0020_1">
  <metadata id="CorelCorpID_0Corel-Layer"/>
  <path class="fil0" d="M0 20.481c0,-11.323 9.158,-20.481 20.481,-20.481 11.323,0 20.481,9.158 20.481,20.481 0,11.323 -9.158,20.481 -20.481,20.481 -11.323,0 -20.481,-9.158 -20.481,-20.481z"/>
  <path class="fil1" d="M29.453 25.493c-0.619,-0.557 -1.361,-1.052 -2.042,-1.485 -1.361,-0.99 -2.661,-1.052 -3.713,0.495 -0.556,0.866 -1.361,0.928 -2.227,0.495 -2.351,-1.052 -4.146,-2.661 -5.198,-5.074 -0.495,-1.052 -0.495,-1.98 0.619,-2.722 0.619,-0.372 1.176,-0.867 1.114,-1.733 -0.062,-1.114 -2.784,-4.888 -3.836,-5.259 -0.434,-0.186 -0.929,-0.186 -1.362,0 -2.537,0.866 -3.589,2.908 -2.537,5.383 2.97,7.363 8.23,12.437 15.469,15.531 0.372,0.185 0.867,0.247 1.114,0.371 1.609,0 3.527,-1.609 4.146,-3.156 0.495,-1.547 -0.619,-2.165 -1.547,-2.846l0 0z"/>
  <path class="fil1" d="M21.347 10.643c5.322,0.866 7.735,3.341 8.415,8.662 0.062,0.495 -0.123,1.238 0.557,1.3 0.743,0 0.557,-0.743 0.619,-1.238 0.062,-5.012 -4.331,-9.652 -9.405,-9.838 -0.433,0.062 -1.176,-0.248 -1.238,0.619 -0.062,0.557 0.619,0.433 1.052,0.495l0 0z"/>
  <path class="fil1" d="M22.399 12.128c-0.495,-0.062 -1.176,-0.31 -1.299,0.433 -0.124,0.742 0.619,0.619 1.113,0.742 3.28,0.743 4.394,1.919 4.95,5.198 0.063,0.433 -0.123,1.176 0.681,1.052 0.619,-0.062 0.433,-0.743 0.433,-1.052 0.062,-3.156 -2.598,-6.002 -5.878,-6.373z"/>
  <path class="fil1" d="M22.708 14.665c-0.371,0 -0.68,0.062 -0.804,0.433 -0.185,0.557 0.186,0.68 0.619,0.742 1.299,0.186 2.042,0.99 2.166,2.352 0,0.309 0.247,0.618 0.618,0.618 0.495,-0.061 0.495,-0.494 0.495,-0.928 0.062,-1.485 -1.67,-3.217 -3.094,-3.217l0 0z"/>
 </g>
</svg>
