<?xml version="1.0" encoding="UTF-8"?>
<!DOCTYPE svg PUBLIC "-//W3C//DTD SVG 1.0//EN" "http://www.w3.org/TR/2001/REC-SVG-20010904/DTD/svg10.dtd">
<!-- Creator: CorelDRAW -->
<svg xmlns="http://www.w3.org/2000/svg" xml:space="preserve" width="75px" height="75px" version="1.0" style="shape-rendering:geometricPrecision; text-rendering:geometricPrecision; image-rendering:optimizeQuality; fill-rule:evenodd; clip-rule:evenodd"
viewBox="0 0 75 75"
 xmlns:xlink="http://www.w3.org/1999/xlink"
 xmlns:xodm="http://www.corel.com/coreldraw/odm/2003">
 <defs>
  <style type="text/css">
   <![CDATA[
    .fil1 {fill:white}
    .fil0 {fill:#30BF39;fill-rule:nonzero}
    .fil2 {fill:#7E8384;fill-rule:nonzero}
   ]]>
  </style>
 </defs>
 <g id="Layer_x0020_1">
  <metadata id="CorelCorpID_0Corel-Layer"/>
  <path class="fil0" d="M0 37.5c0,-20.686 16.814,-37.5 37.5,-37.5 20.686,0 37.5,16.814 37.5,37.5 0,20.686 -16.814,37.5 -37.5,37.5 -20.686,0 -37.5,-16.814 -37.5,-37.5z"/>
  <path class="fil1" d="M37.832 16.482c-11.283,0 -20.464,9.182 -20.464,20.465 0,3.872 1.105,7.522 2.986,10.509l-3.65 11.062 11.283 -3.651c2.876,1.549 6.305,2.544 9.845,2.544 11.283,0 20.464,-9.181 20.464,-20.464 0,-11.283 -9.181,-20.465 -20.464,-20.465l0 0zm0 37.5c-3.429,0 -6.637,-1.106 -9.292,-2.876l-6.637 2.102 2.212 -6.306c-2.102,-2.765 -3.319,-6.194 -3.319,-9.955 0,-9.403 7.633,-17.035 17.036,-17.035 9.402,0 17.035,7.632 17.035,17.035 0,9.403 -7.633,17.035 -17.035,17.035l0 0zm9.624 -12.389c-0.554,-0.332 -3.098,-1.66 -3.54,-1.881 -0.442,-0.11 -0.774,-0.221 -1.217,0.221 -0.332,0.554 -1.327,1.66 -1.659,1.992 -0.332,0.331 -0.664,0.442 -1.107,0.11 -0.552,-0.221 -2.212,-0.884 -4.092,-2.765 -1.549,-1.438 -2.545,-3.208 -2.766,-3.651 -0.331,-0.553 0,-0.884 0.221,-1.106 0.222,-0.221 0.553,-0.553 0.775,-0.885 0.332,-0.332 0.442,-0.553 0.553,-0.884 0.221,-0.332 0.111,-0.664 0,-0.886 -0.111,-0.221 -0.996,-2.876 -1.438,-3.982 -0.442,-0.995 -0.885,-0.885 -1.106,-0.885 -0.332,0 -0.664,0 -0.996,-0.11 -0.332,0 -0.995,0.11 -1.438,0.663 -0.553,0.443 -1.88,1.66 -1.991,4.314 -0.111,2.545 1.659,5.089 1.88,5.421 0.332,0.332 3.43,5.973 8.629,8.186 5.31,2.323 5.31,1.659 6.194,1.548 0.996,0 3.208,-1.106 3.651,-2.323 0.442,-1.216 0.553,-2.212 0.442,-2.433 -0.11,-0.221 -0.442,-0.443 -0.995,-0.664l0 0z"/>
  <path class="fil2" d="M37.5 75c-0.221,0 -0.553,0 -0.774,0 0.221,0 0.553,0 0.774,0 20.686,0 37.5,-16.814 37.5,-37.5 0,-0.111 0,-0.221 0,-0.332 0,0.111 0,0.221 0,0.332 0,20.686 -16.814,37.5 -37.5,37.5z"/>
 </g>
</svg>
