<?xml version="1.0" encoding="UTF-8"?>
<!DOCTYPE svg PUBLIC "-//W3C//DTD SVG 1.0//EN" "http://www.w3.org/TR/2001/REC-SVG-20010904/DTD/svg10.dtd">
<!-- Creator: CorelDRAW -->
<svg xmlns="http://www.w3.org/2000/svg" xml:space="preserve" width="75px" height="75px" version="1.0" style="shape-rendering:geometricPrecision; text-rendering:geometricPrecision; image-rendering:optimizeQuality; fill-rule:evenodd; clip-rule:evenodd"
viewBox="0 0 21.519 21.519"
 xmlns:xlink="http://www.w3.org/1999/xlink"
 xmlns:xodm="http://www.corel.com/coreldraw/odm/2003">
 <defs>
  <style type="text/css">
   <![CDATA[
    .fil0 {fill:black;fill-rule:nonzero}
   ]]>
  </style>
 </defs>
 <g id="Layer_x0020_1">
  <metadata id="CorelCorpID_0Corel-Layer"/>
  <path class="fil0" d="M21.519 10.761c0,5.532 -4.174,10.086 -9.544,10.688 -0.397,0.048 -0.804,0.07 -1.214,0.07 -0.929,0 -1.828,-0.116 -2.688,-0.339 -4.642,-1.193 -8.073,-5.406 -8.073,-10.419 0,-5.944 4.817,-10.761 10.761,-10.761 5.942,0 10.758,4.817 10.758,10.761zm-12.209 1.809l0 -3.932 3.782 1.971 -3.782 1.961zm8.306 -4.612c0,0 -0.135,-0.965 -0.555,-1.391 -0.529,-0.56 -1.131,-0.56 -1.401,-0.591 -1.962,-0.14 -4.898,-0.14 -4.898,-0.14l-0.005 0c0,0 -2.937,0 -4.898,0.14 -0.275,0.031 -0.871,0.036 -1.401,0.591 -0.42,0.426 -0.555,1.391 -0.555,1.391 0,0 -0.14,1.131 -0.14,2.267l0 1.063c0,1.132 0.14,2.268 0.14,2.268 0,0 0.135,0.965 0.555,1.39 0.535,0.561 1.231,0.54 1.541,0.597 1.121,0.109 4.758,0.14 4.758,0.14 0,0 2.941,-0.005 4.903,-0.145 0.275,-0.031 0.872,-0.036 1.401,-0.592 0.42,-0.425 0.555,-1.39 0.555,-1.39 0,0 0.14,-1.131 0.14,-2.268l0 -1.063c0,-1.136 -0.14,-2.267 -0.14,-2.267z"/>
 </g>
</svg>
