<?xml version="1.0" encoding="UTF-8"?>
<!DOCTYPE svg PUBLIC "-//W3C//DTD SVG 1.1//EN" "http://www.w3.org/Graphics/SVG/1.1/DTD/svg11.dtd">
<!-- Creator: CorelDRAW X7 -->
<svg xmlns="http://www.w3.org/2000/svg" xml:space="preserve" width="122.5mm" height="32mm" version="1.1" style="shape-rendering:geometricPrecision; text-rendering:geometricPrecision; image-rendering:optimizeQuality; fill-rule:evenodd; clip-rule:evenodd"
viewBox="8470 8777 12691 3316"
 xmlns:xlink="http://www.w3.org/1999/xlink">
 <defs>
  <style type="text/css">
   <![CDATA[
    .fil0 {
      animation: signature-draw 2.2s cubic-bezier(.65, 0, .35, 1) forwards, signature-fill .55s ease forwards 1.45s;
      fill: transparent;
      stroke: #373737;
      stroke-dasharray: 22000;
      stroke-dashoffset: 22000;
      stroke-linecap: round;
      stroke-linejoin: round;
      stroke-width: 90;
    }

    @keyframes signature-draw {
      to {
        stroke-dashoffset: 0;
      }
    }

    @keyframes signature-fill {
      to {
        fill: #373737;
        stroke-width: 0;
      }
    }

    @media (prefers-reduced-motion: reduce) {
      .fil0 {
        animation: none;
        fill: #373737;
        stroke-width: 0;
      }
    }
   ]]>
  </style>
 </defs>
 <g id="Layer_x0020_1">
  <metadata id="CorelCorpID_0Corel-Layer"/>
  <g id="_1453624466016">
   <path class="fil0" d="M10684 11395c-29,20 -61,22 -93,10 -29,-24 -51,-24 -52,-116 54,-408 183,-598 404,-940 619,-829 1061,-231 911,173 -155,411 -303,545 -691,706 174,169 300,178 542,161 280,45 -57,437 -604,71l-131 -98 -68 -45c-132,-82 -108,-8 -218,78zm627 -1141l-114 205 -112 234 -96 198c-201,450 362,21 485,-102 433,-654 -78,-729 -163,-535z"/>
   <path class="fil0" d="M10034 9692c-161,138 -319,97 -529,97l-306 -6c-298,2 -619,28 -595,429 128,438 134,-93 565,-119l179 -14 216 -12 95 -4 58 28 30 63 -22 82 -95 178c-227,374 -486,722 -768,1058l-234 224c-98,258 99,337 297,127l155 -216 307 -385 320 -425 268 -468 168 -210c127,-98 284,-119 437,-171l216 -66c104,-26 199,-85 260,-128 156,-110 137,-268 -31,-255 -40,3 -74,34 -132,56l-135 50 -194 59 -173 46c-35,-345 -170,-414 -357,-18z"/>
   <path class="fil0" d="M12950 10595c0,0 8,-173 286,-295 296,-130 -35,-300 -193,-171l-294 305 -397 469 -182 176c0,0 -100,38 -57,224 43,186 464,-140 464,-140 0,0 66,-44 206,13 140,57 380,4 380,4l210 -68 179 -101c0,0 114,-84 45,-132 -82,-57 -438,192 -706,106 0,0 -80,-63 9,-111 90,-49 230,-117 230,-117l221 -135 266 -155 191 -98 169 -71c0,0 225,-32 185,-191 -40,-158 -196,-60 -228,-49 -32,11 -237,112 -237,112l-171 90 -334 203 -165 118c0,0 -90,79 -77,14z"/>
   <path class="fil0" d="M14620 10051c-321,163 -441,447 -569,566 -69,65 -279,505 -122,560 180,62 177,50 367,32 0,0 171,-14 334,-162 163,-148 459,-334 459,-334 379,-257 403,-217 751,-584 0,0 179,-215 120,-263 -59,-49 -88,-89 -239,-12 -152,76 -273,186 -273,186l-268 286 -223 188 -331 268c-76,50 -151,101 -226,151 -102,34 -289,124 -230,-50 69,-202 260,-398 405,-528 0,0 229,-63 209,-223 -20,-161 -164,-81 -164,-81z"/>
   <path class="fil0" d="M16735 9585c0,0 -88,-17 -188,56 -42,30 -72,98 -120,156l-169 201c-36,42 -21,17 -57,60 -216,263 -227,316 -540,537l-302 223 -152 102c0,0 -123,119 19,172 143,54 351,3 351,3 121,-29 242,-59 363,-89 201,-65 237,-76 409,-191 0,0 165,-80 75,-167 -91,-86 -224,42 -224,42 -178,95 -274,143 -492,132 0,0 -80,-36 24,-81 104,-45 232,-163 232,-163l288 -257 341 -299c70,-87 140,-173 211,-260 39,-71 84,-182 -69,-177z"/>
   <path class="fil0" d="M17463 9987c0,0 81,-256 -141,-125 -289,169 -380,495 -538,790l-241 474c0,0 -122,230 -314,372 -191,141 -208,146 -388,210 -180,64 -205,39 -366,78 -222,54 -141,172 -55,200 136,43 244,19 342,9 99,-9 329,-105 329,-105 200,-57 237,-139 357,-221 158,-106 322,-482 326,-492l210 -424 148 -321 202 -276 129 -169z"/>
   <path class="fil0" d="M17886 10340c114,-16 136,26 120,82 -1,3 -21,54 -24,59 -37,69 -106,138 -124,151l-125 134 -64 49c0,0 -127,33 -53,152 75,119 224,-88 224,-88l173 -160 162 -177 128 -117 110 -69 79 -14c0,0 168,-43 85,-168 -127,-190 78,-386 184,-609 0,0 88,-125 -19,-220 -107,-95 -216,-9 -216,-9 -122,73 -213,134 -320,233 -41,39 -184,173 -232,231 -49,58 -90,119 -137,179 -30,35 -50,69 -93,104l-84 61c0,0 -60,49 -85,81 -7,10 -18,27 -22,36 -14,30 -31,66 -14,136l16 68 -25 73c-27,78 -36,100 -6,130 30,30 59,71 137,0 81,-75 57,-304 225,-328zm474 -642c0,0 65,-8 68,32 4,40 4,112 -86,256 -79,126 -209,166 -278,148 -43,-12 -45,-84 -31,-96 4,-4 5,-11 10,-16 66,-85 146,-172 158,-182l159 -142z"/>
   <path class="fil0" d="M19770 10272c-91,169 -39,191 -78,280 -18,42 -86,111 -187,60 -43,-21 -59,-84 -51,-151 18,-154 276,-567 366,-656 207,-203 409,-423 640,-585 37,-26 90,-65 135,-88 0,0 490,-295 500,-36 5,112 6,129 -8,187l-75 304 -125 343c0,0 -268,688 -486,870 -145,121 -5,345 -181,345 -30,0 -194,15 -194,15 0,0 -78,19 -175,99 -97,81 -228,146 -228,146 0,0 -164,71 -205,7 -28,-42 -106,-71 23,-165 174,-126 353,-193 557,-361 174,-192 306,-373 447,-586 172,-258 135,-246 227,-478 52,-133 70,-189 101,-317 26,-108 72,-318 -121,-158 -238,198 -196,160 -196,160l-219 207 -158 162 -192 237 -117 159z"/>
   <path class="fil0" d="M20962 10662c0,0 -210,4 -164,277 47,272 118,208 136,208 18,0 164,-71 149,-277 -15,-205 -121,-208 -121,-208z"/>
  </g>
 </g>
</svg>
