<?xml version="1.0" encoding="UTF-8"?>
<!DOCTYPE svg PUBLIC "-//W3C//DTD SVG 1.1//EN" "http://www.w3.org/Graphics/SVG/1.1/DTD/svg11.dtd">
<!-- Creator: CorelDRAW X7 -->
<svg xmlns="http://www.w3.org/2000/svg" xml:space="preserve" width="208.195mm" height="84.6666mm" version="1.1" style="shape-rendering:geometricPrecision; text-rendering:geometricPrecision; image-rendering:optimizeQuality; fill-rule:evenodd; clip-rule:evenodd"
viewBox="0 0 20820 8467"
 xmlns:xlink="http://www.w3.org/1999/xlink">
 <defs>
  <style type="text/css">
   <![CDATA[
    .fil0 {fill:black;fill-rule:nonzero}
   ]]>
  </style>
 </defs>
 <g id="Layer_x0020_1">
  <metadata id="CorelCorpID_0Corel-Layer"/>
  <g id="_2690316930448">
   <path class="fil0" d="M1241 7226c1653,1654 4333,1654 5987,2 1653,-1653 1654,-4334 1,-5987 -1653,-1654 -4333,-1655 -5987,-2 -1653,1653 -1654,4333 -1,5987zm4689 -5202l-1220 1220 2595 2598 -1197 1196 -2595 -2597 -915 915 -1434 -1434 1993 -1991 2178 -503 595 596z"/>
   <g>
    <path class="fil0" d="M10693 1908c-317,0 -476,92 -476,277l0 951c0,185 159,277 476,277 316,0 475,-92 475,-277l0 -951c0,-185 -159,-277 -475,-277zm475 1783l0 -278c0,212 -225,317 -674,317 -448,0 -673,-172 -673,-515l0 -1109c0,-343 225,-515 673,-515 449,0 674,106 674,317l0 -1149 396 0 0 2932 -396 0z"/>
    <path class="fil0" d="M12673 2772c-264,0 -396,84 -396,253l0 111c0,185 132,277 396,277 264,0 396,-125 396,-374l0 -410c0,95 -132,143 -396,143zm-95 958c-465,0 -697,-172 -697,-515l0 -269c0,-328 264,-491 792,-491 264,0 396,-64 396,-191l0 -79c0,-185 -132,-277 -396,-277 -227,0 -340,92 -340,277l0 159 -397 0 0 -238c0,-343 246,-515 737,-515 528,0 792,172 792,515l0 1307c0,185 53,278 159,278l-396 0c-106,0 -159,-93 -159,-278 0,212 -163,317 -491,317z"/>
    <polygon class="fil0" points="13782,759 14179,759 14179,3691 13782,3691 "/>
    <path class="fil0" d="M14892 3691l-396 0 0 -2060 396 0 0 2060zm31 -2674c0,145 -76,218 -229,218 -154,0 -230,-73 -230,-218 0,-146 76,-218 230,-218 153,0 229,72 229,218z"/>
    <path class="fil0" d="M15605 2185l0 951c0,185 158,277 475,277 317,0 476,-92 476,-277l0 -951c0,-185 -159,-277 -476,-277 -317,0 -475,92 -475,277zm-396 1506l0 -2932 396 0 0 1149c0,-211 224,-317 673,-317 449,0 674,172 674,515l0 1109c0,343 -225,515 -674,515 -449,0 -673,-105 -673,-317l0 278 -396 0z"/>
    <path class="fil0" d="M18615 2185c0,-185 -158,-277 -475,-277 -317,0 -475,92 -475,277l0 951c0,185 158,277 475,277 317,0 475,-92 475,-277l0 -951zm397 1030c0,343 -291,515 -872,515 -581,0 -871,-172 -871,-515l0 -1109c0,-343 290,-515 871,-515 581,0 872,172 872,515l0 1109z"/>
    <path class="fil0" d="M19328 1631l397 0 0 277c0,-211 182,-317 546,-317 365,0 547,172 547,515l0 238 -396 0 0 -159c0,-185 -117,-277 -349,-277 -232,0 -348,92 -348,277l0 1506 -397 0 0 -2060z"/>
   </g>
   <g>
    <path class="fil0" d="M10439 4261l0 634 396 0 0 317 -396 0 0 1109c0,211 132,317 396,317l0 317 -396 0c-264,0 -396,-159 -396,-475l0 -1268 -222 0 0 -317 222 0 0 -634 396 0z"/>
    <path class="fil0" d="M11152 4895l396 0 0 277c0,-211 183,-317 547,-317 365,0 547,172 547,515l0 238 -396 0 0 -158c0,-185 -117,-278 -349,-278 -232,0 -349,93 -349,278l0 1505 -396 0 0 -2060z"/>
    <polygon class="fil0" points="12959,6955 12959,4023 13355,4023 13355,5931 14087,4895 14545,4895 13905,5825 14572,6955 14117,6955 13653,6188 13355,6608 13355,6955 "/>
    <path class="fil0" d="M16603 6955l-396 0 0 -277c0,211 -224,317 -673,317 -449,0 -674,-172 -674,-515l0 -1585 397 0 0 1505c0,185 158,278 475,278 317,0 475,-93 475,-278l0 -1505 396 0 0 2060z"/>
    <polygon class="fil0" points="16920,4024 17316,4024 17316,6955 16920,6955 "/>
    <path class="fil0" d="M18061 4281c0,145 -77,218 -230,218 -153,0 -230,-73 -230,-218 0,-145 77,-218 230,-218 153,0 230,73 230,218zm-32 614l0 2401c0,274 -132,412 -397,412l-284 0 2 -317c189,0 283,-93 283,-278l0 -2218 396 0z"/>
    <path class="fil0" d="M19139 6036c-264,0 -397,84 -397,253l0 111c0,185 133,278 397,278 264,0 396,-125 396,-374l0 -411c0,95 -132,143 -396,143zm-95 959c-466,0 -698,-172 -698,-515l0 -270c0,-327 264,-491 793,-491 264,0 396,-63 396,-190l0 -79c0,-185 -132,-278 -396,-278 -228,0 -341,93 -341,278l0 158 -396 0 0 -238c0,-343 245,-515 737,-515 528,0 792,172 792,515l0 1308c0,184 53,277 158,277l-396 0c-106,0 -158,-93 -158,-277 0,211 -164,317 -491,317z"/>
   </g>
  </g>
 </g>
</svg>
